<?xml version="1.0" encoding="utf-8"?>
<svg version="1.1" id="Layer_1" x="0px" y="0px" viewBox="0 0 130.753 148.03" style="enable-background:new 0 0 403.9 144;" xmlns="http://www.w3.org/2000/svg">
  <style type="text/css">
	.st0{display:none;}
	.st1{fill:#8DC8E8;}
	.st2{fill:#41B6E6;}
	.st3{fill:#14A3C7;}
	.st4{fill:#5CB8B2;}
	.st5{fill:#279989;}
	.st6{fill:#A0D1CA;}
	.st7{fill:#00857D;}
	.st8{fill:#009639;}
	.st9{fill:#00685E;}
	.st10{fill:#84BD00;}
	.st11{fill:#007864;}
	.st12{fill:#A4D65E;}
	.st13{fill:#009A44;}
	.st14{fill:#C2E189;}
	.st15{fill:#78BE20;}
	.st16{fill:#FFFFFF;}
	.st17{fill:#00827E;}
	.st18{fill:#454545;}
</style>
  <g>
    <g>
      <rect y="48.2" class="st1" width="13.2" height="37.7"/>
      <rect y="85.9" class="st2" width="13.2" height="29.9"/>
      <rect x="13.2" y="20.1" class="st2" width="13.4" height="41.7"/>
      <rect x="13.2" y="61.9" class="st3" width="13.4" height="47.8"/>
      <rect x="26.5" y="27.1" class="st4" width="13.2" height="45"/>
      <rect x="26.5" y="72.1" class="st5" width="13.2" height="52.7"/>
      <rect x="39.8" class="st6" width="20.2" height="48"/>
      <rect x="39.8" y="48" class="st7" width="20.2" height="87.7"/>
      <rect x="59.9" y="23.7" class="st8" width="13.3" height="62"/>
      <rect x="59.9" y="85.7" class="st9" width="13.3" height="58.3"/>
      <rect x="73.2" y="11.7" class="st10" width="20.2" height="54.9"/>
      <rect x="73.2" y="66.6" class="st11" width="20.2" height="59.4"/>
      <rect x="93.4" y="48.2" class="st12" width="13.3" height="29.8"/>
      <rect x="93.4" y="78" class="st13" width="13.3" height="31.7"/>
      <rect x="106.6" y="39.4" class="st14" width="13.3" height="27.2"/>
      <rect x="106.6" y="66.6" class="st15" width="13.3" height="31.6"/>
    </g>
    <g>
      <path class="st17" d="M161.2,73c0,12.6,2.8,16.6,10.9,16.6c1.5,0,3.2-0.2,4.1-0.5c0.3-0.1,0.5-0.2,0.5-0.6V76.6 c0-0.3-0.1-0.4-0.4-0.4h-5.6c-0.4,0-0.7-0.3-0.7-0.7v-6.1c0-0.4,0.3-0.7,0.7-0.7h14c0.4,0,0.7,0.3,0.7,0.7v24.6 c0,0.7-0.1,1-0.6,1.2c-3,1.1-8,2.1-13.6,2.1c-14.3,0-20-8.7-20-24.3c0-15.4,5.7-25,20.2-25c4.1,0,9.3,0.5,11.2,1.2 c0.3,0.1,0.5,0.2,0.5,0.6l-0.4,6.7c0,0.2-0.4,0.5-0.7,0.4c-1.8-0.6-6.5-1.2-9.2-1.2C164.7,55.5,161.2,59.6,161.2,73z"/>
      <path class="st17" d="M217.7,84.9c-0.1-0.4-0.2-0.5-0.6-0.5h-13.8c-0.4,0-0.6,0.1-0.7,0.5L200,95.8c-0.2,0.6-0.5,0.7-0.9,0.7h-8.2 c-0.4,0-0.6-0.1-0.6-0.4c0-0.1,0-0.2,0.1-0.3c2.1-8.5,9.8-36.8,12.8-46.6c0.1-0.4,0.4-0.7,0.8-0.7h13.5c0.5,0,0.7,0.3,0.8,0.7 c3,10.5,10.9,40.3,12.3,46.6c0,0.1,0,0.2,0,0.3c0,0.3-0.1,0.4-0.5,0.4h-9c-0.5,0-0.8-0.1-0.9-0.7L217.7,84.9z M215.9,77.3 c0.3,0,0.4-0.1,0.4-0.4c-0.8-3.6-3.3-14.8-4.7-20.3c-0.1-0.3-0.3-0.4-1.2-0.4s-1.1,0.1-1.2,0.4c-1.5,5.5-4.2,16.7-5,20.3 c0,0.4,0.1,0.4,0.4,0.4H215.9z"/>
      <path class="st17" d="M240.3,56.7c0-0.3-0.1-0.4-0.4-0.4h-9c-0.4,0-0.7-0.3-0.7-0.7v-6.3c0-0.4,0.3-0.7,0.7-0.7h28.4 c0.4,0,0.7,0.3,0.7,0.7v6.3c0,0.4-0.3,0.7-0.7,0.7h-9.1c-0.3,0-0.4,0.1-0.4,0.4v39.1c0,0.4-0.3,0.7-0.7,0.7h-8 c-0.4,0-0.7-0.3-0.7-0.7V56.7z"/>
      <path class="st17" d="M266.3,49.3c0-0.4,0.3-0.7,0.7-0.7h24.4c0.4,0,0.7,0.3,0.7,0.7v6.3c0,0.4-0.3,0.7-0.7,0.7h-15.2 c-0.3,0-0.4,0.1-0.4,0.4v11.1c0,0.3,0.1,0.4,0.4,0.4h14.2c0.4,0,0.7,0.3,0.7,0.7v5.9c0,0.4-0.3,0.7-0.7,0.7h-14.2 c-0.3,0-0.4,0.1-0.4,0.4v12.3c0,0.3,0.1,0.4,0.4,0.4h16.4c0.4,0,0.7,0.3,0.7,0.7v6.4c0,0.4-0.3,0.7-0.7,0.7H267 c-0.4,0-0.7-0.3-0.7-0.7V49.3z"/>
      <path class="st17" d="M301.4,49.3c0-0.4,0.3-0.7,0.7-0.7h8c0.4,0,0.7,0.3,0.7,0.7v39c0,0.3,0.1,0.4,0.4,0.4h11.7 c0.4,0,0.7,0.3,0.7,0.7v6.4c0,0.4-0.3,0.7-0.7,0.7h-20.8c-0.4,0-0.7-0.3-0.7-0.7V49.3z"/>
      <path class="st17" d="M352.6,84.9c-0.1-0.4-0.2-0.5-0.6-0.5h-13.8c-0.4,0-0.6,0.1-0.7,0.5l-2.7,10.9c-0.2,0.6-0.5,0.7-0.9,0.7 h-8.2c-0.4,0-0.6-0.1-0.6-0.4c0-0.1,0-0.2,0.1-0.3c2.1-8.5,9.8-36.8,12.8-46.6c0.1-0.4,0.4-0.7,0.8-0.7h13.5 c0.5,0,0.7,0.3,0.8,0.7c3,10.5,10.9,40.3,12.3,46.6c0,0.1,0,0.2,0,0.3c0,0.3-0.1,0.4-0.5,0.4h-9c-0.5,0-0.8-0.1-0.9-0.7 L352.6,84.9z M350.8,77.3c0.3,0,0.4-0.1,0.4-0.4c-0.8-3.6-3.3-14.8-4.7-20.3c-0.1-0.3-0.3-0.4-1.2-0.4s-1.1,0.1-1.2,0.4 c-1.5,5.5-4.2,16.7-5,20.3c0,0.4,0.1,0.4,0.4,0.4H350.8z"/>
      <path class="st17" d="M387.6,48.6c9.5,0,15.4,2.9,15.4,12c0,6.6-2.7,8.4-5.4,10c-0.7,0.4-0.8,0.6-0.8,0.9c0,0.3,0.1,0.4,0.4,0.6 c3.5,1.4,6.8,4.1,6.8,11.7c0,9.6-7.1,12.8-14.2,12.8h-17.4c-0.4,0-0.7-0.3-0.7-0.7V49.3c0-0.4,0.3-0.7,0.7-0.7H387.6z M386.2,69.2 c4.7-0.2,7.2-1.8,7.2-7.5c0-4.5-1.7-6.3-7.5-6.3h-4.4c-0.4,0-0.5,0.2-0.5,0.5v12.8c0,0.5,0.2,0.6,0.6,0.6H386.2z M385.4,89.6 c6.8,0,8.8-1.3,8.8-7.2c0-6-3.5-7.3-8.3-7.3h-4.3c-0.4,0-0.6,0.1-0.6,0.6v13.3c0,0.4,0.1,0.5,0.5,0.5H385.4z"/>
    </g>
    <g>
      <path class="st18" d="M161.1,139h-6.4c-0.1,0-0.2,0-0.3,0.2c-0.2,0.6-1.1,3.9-1.2,4.6c-0.1,0.2-0.2,0.3-0.3,0.3h-1.5 c-0.2,0-0.2-0.1-0.2-0.3c0.8-3.2,3.9-13.9,5.1-17.4c0.1-0.2,0.2-0.3,0.3-0.3h2.9c0.2,0,0.3,0.1,0.3,0.3c1.2,3.9,4.2,15.1,4.8,17.4 c0.1,0.2,0,0.3-0.2,0.3h-1.6c-0.2,0-0.3,0-0.3-0.3c-0.2-0.7-1-4-1.2-4.6C161.3,139,161.2,139,161.1,139z M160.7,137.4 c0.2,0,0.2-0.1,0.2-0.2c-0.4-1.6-1.7-6.8-2.4-9.4c-0.1-0.2-0.1-0.2-0.5-0.2c-0.3,0-0.4,0-0.4,0.2c-0.8,2.6-2.2,7.7-2.6,9.4 c0,0.2,0.1,0.2,0.2,0.2H160.7z"/>
      <path class="st18" d="M173.7,126.3c0-0.2,0.1-0.3,0.3-0.3h8c0.2,0,0.3,0.1,0.3,0.3v1.1c0,0.2-0.1,0.3-0.3,0.3h-6.2 c-0.1,0-0.2,0.1-0.2,0.2v5.9c0,0.1,0.1,0.2,0.2,0.2h5.8c0.2,0,0.3,0.1,0.3,0.3v1c0,0.2-0.1,0.3-0.3,0.3h-5.8 c-0.1,0-0.2,0.1-0.2,0.2v6.6c0,0.1,0.1,0.2,0.2,0.2h6.7c0.2,0,0.3,0.1,0.3,0.3v1.1c0,0.2-0.1,0.3-0.3,0.3H174 c-0.2,0-0.3-0.1-0.3-0.3V126.3z"/>
      <path class="st18" d="M198.2,140c0,2.6-2.1,4.3-5.9,4.3c-4,0-5.7-1.6-5.7-4.3v-13.7c0-0.2,0.1-0.3,0.3-0.3h1.4 c0.2,0,0.3,0.1,0.3,0.3v13.3c0,2.4,1.6,3,3.8,3c2.1,0,3.9-0.5,3.9-3v-13.3c0-0.2,0.1-0.3,0.3-0.3h1.4c0.2,0,0.3,0.1,0.3,0.3V140z"/>
      <path class="st18" d="M208.6,136.8c-0.1-0.1-0.2-0.1-0.3-0.2h-2.8c-0.1,0-0.2,0.1-0.2,0.2v7c0,0.2-0.1,0.3-0.3,0.3h-1.4 c-0.2,0-0.3-0.1-0.3-0.3v-17.4c0-0.2,0.1-0.3,0.3-0.3h4.5c3.8,0,5.4,1.6,5.4,5c0,2.5-1,4.1-3,5c-0.1,0-0.2,0.2-0.1,0.2l4.5,7.5 c0.1,0.2,0,0.3-0.1,0.3H213c-0.2,0-0.2-0.1-0.3-0.2L208.6,136.8z M211.6,131.2c0-2.8-1-3.7-3.9-3.7h-2.1c-0.1,0-0.2,0.1-0.2,0.2 v7.3c0,0.1,0.1,0.2,0.2,0.2h2.2C210.4,135.1,211.6,133.6,211.6,131.2z"/>
      <path class="st18" d="M229.2,142.7c-1.1,1.3-2.4,1.6-4.8,1.6c-2.4,0-3.7-0.3-4.8-1.6c-1.1-1.4-1.6-4.3-1.6-7.7s0.6-6.2,1.6-7.6 c1.1-1.3,2.4-1.7,4.8-1.7c2.4,0,3.8,0.3,4.8,1.7c1.1,1.4,1.6,4.2,1.6,7.6S230.3,141.3,229.2,142.7z M221.1,141.8 c0.6,0.7,1.3,0.8,3.2,0.8c2,0,2.7-0.1,3.3-0.8c0.8-1,1.2-3.8,1.2-6.8c0-3-0.4-5.8-1.2-6.8c-0.6-0.7-1.3-0.8-3.2-0.8 c-2,0-2.6,0.1-3.3,0.8c-0.8,1-1.2,3.8-1.2,6.8C219.9,138,220.3,140.9,221.1,141.8z"/>
      <path class="st18" d="M244.6,144c-0.2,0-0.3-0.1-0.4-0.4l-6.1-15.2c-0.1-0.3-0.2-0.4-0.3-0.4c-0.2,0-0.2,0.1-0.2,0.3v15.4 c0,0.2-0.1,0.3-0.3,0.3h-1.3c-0.2,0-0.3-0.1-0.3-0.3v-17.4c0-0.2,0.1-0.3,0.3-0.3h2.8c0.2,0,0.3,0.1,0.4,0.3l6,15 c0.2,0.3,0.2,0.4,0.3,0.4c0.1,0,0.2-0.1,0.2-0.2v-15.2c0-0.2,0.1-0.3,0.3-0.3h1.4c0.2,0,0.3,0.1,0.3,0.3v17.4 c0,0.2-0.1,0.3-0.3,0.3H244.6z"/>
      <path class="st18" d="M252.9,126.3c0-0.2,0.1-0.3,0.3-0.3h8c0.2,0,0.3,0.1,0.3,0.3v1.1c0,0.2-0.1,0.3-0.3,0.3H255 c-0.1,0-0.2,0.1-0.2,0.2v5.9c0,0.1,0.1,0.2,0.2,0.2h5.8c0.2,0,0.3,0.1,0.3,0.3v1c0,0.2-0.1,0.3-0.3,0.3H255 c-0.1,0-0.2,0.1-0.2,0.2v6.6c0,0.1,0.1,0.2,0.2,0.2h6.7c0.2,0,0.3,0.1,0.3,0.3v1.1c0,0.2-0.1,0.3-0.3,0.3h-8.5 c-0.2,0-0.3-0.1-0.3-0.3V126.3z"/>
      <path class="st18" d="M269.8,136.2c-0.9,1.9-3.2,6.3-3.7,7.6c-0.1,0.2-0.2,0.2-0.3,0.2h-1.5c-0.1,0-0.3-0.1-0.2-0.3 c0.5-1.1,3.3-6.5,4.4-8.5c0.2-0.3,0.2-0.5,0.2-0.6c0-0.2,0-0.3-0.2-0.6c-1.3-2.2-3.7-6.8-4.1-7.7c-0.1-0.2,0-0.2,0.2-0.2h1.6 c0.1,0,0.2,0.1,0.3,0.3c0.6,1.4,2.6,5.4,3.4,6.9c0.1,0.1,0.1,0.2,0.3,0.2s0.2-0.1,0.3-0.2c0.8-1.5,2.8-5.5,3.4-6.9 c0.1-0.1,0.1-0.3,0.3-0.3h1.6c0.2,0,0.2,0.1,0.2,0.3c-0.8,1.5-3,5.7-4.1,7.6c-0.2,0.4-0.3,0.5-0.3,0.7c0,0.2,0.1,0.3,0.2,0.6 c1.1,1.9,4,7.4,4.4,8.5c0.1,0.2-0.1,0.3-0.2,0.3h-1.5c-0.2,0-0.3-0.1-0.4-0.2c-0.6-1.4-2.8-5.8-3.8-7.6c-0.1-0.1-0.1-0.2-0.3-0.2 C270,136,269.9,136,269.8,136.2z"/>
      <path class="st18" d="M281.8,127.8c0-0.1-0.1-0.2-0.2-0.2h-3.8c-0.2,0-0.3-0.1-0.3-0.3v-1.1c0-0.2,0.1-0.3,0.3-0.3h9.8 c0.2,0,0.3,0.1,0.3,0.3v1.1c0,0.2-0.1,0.3-0.3,0.3h-3.8c-0.1,0-0.2,0.1-0.2,0.2v15.9c0,0.2-0.1,0.3-0.3,0.3h-1.4 c-0.2,0-0.3-0.1-0.3-0.3V127.8z"/>
      <path class="st18" d="M302.6,144.3c-4.8,0-6.4-3.3-6.4-9.1c0-5.8,1.7-9.4,6.5-9.4c1.5,0,2.6,0.2,3.3,0.4c0.1,0.1,0.1,0.1,0.1,0.2 l-0.1,1.3c0,0.1-0.1,0.2-0.2,0.1c-0.6-0.2-1.8-0.4-2.9-0.4c-3.9,0-4.7,2.6-4.7,7.8c0,4.9,0.8,7.5,4.7,7.5c0.9,0,2.2-0.2,2.9-0.4 c0.1,0,0.3-0.1,0.3,0.1l0.1,1.1c0,0.2,0,0.3-0.1,0.3C305.2,144.1,303.9,144.3,302.6,144.3z"/>
      <path class="st18" d="M320.2,142.7c-1.1,1.3-2.4,1.6-4.8,1.6c-2.4,0-3.7-0.3-4.8-1.6c-1.1-1.4-1.6-4.3-1.6-7.7s0.6-6.2,1.6-7.6 c1.1-1.3,2.4-1.7,4.8-1.7c2.4,0,3.8,0.3,4.8,1.7c1.1,1.4,1.6,4.2,1.6,7.6S321.3,141.3,320.2,142.7z M312.2,141.8 c0.6,0.7,1.3,0.8,3.2,0.8c2,0,2.7-0.1,3.3-0.8c0.8-1,1.2-3.8,1.2-6.8c0-3-0.4-5.8-1.2-6.8c-0.6-0.7-1.3-0.8-3.2-0.8 c-2,0-2.6,0.1-3.3,0.8c-0.8,1-1.2,3.8-1.2,6.8C311,138,311.4,140.9,312.2,141.8z"/>
      <path class="st18" d="M338,126.3c0.1-0.2,0.2-0.3,0.4-0.3h2.8c0.2,0,0.3,0.1,0.3,0.3v17.4c0,0.2-0.1,0.3-0.3,0.3h-1.4 c-0.2,0-0.3-0.1-0.3-0.3V128c0-0.2,0-0.3-0.1-0.3c-0.1,0-0.2,0.1-0.3,0.3l-4,11.5c-0.1,0.3-0.2,0.4-0.5,0.4h-1.4 c-0.3,0-0.4,0-0.5-0.3L329,128c-0.1-0.2-0.1-0.3-0.2-0.3c-0.1,0-0.1,0.1-0.1,0.3v15.7c0,0.2-0.1,0.3-0.3,0.3H327 c-0.2,0-0.3-0.1-0.3-0.3v-17.4c0-0.2,0.1-0.3,0.3-0.3h2.9c0.2,0,0.3,0.1,0.3,0.3l3.8,11.4c0.1,0.2,0.1,0.2,0.2,0.2 c0.1,0,0.1,0,0.2-0.3L338,126.3z"/>
      <path class="st18" d="M351.7,126c3.4,0,5.3,1.4,5.3,5.2c0,4.2-2.2,5.5-5.8,5.5H349c-0.1,0-0.2,0.1-0.2,0.2v6.9 c0,0.2-0.1,0.3-0.3,0.3h-1.4c-0.2,0-0.3-0.1-0.3-0.3v-17.4c0-0.2,0.1-0.3,0.3-0.3H351.7z M351.2,135.2c2.6,0,3.8-0.8,3.8-3.9 c0-2.9-1.2-3.7-3.8-3.7H349c-0.1,0-0.2,0.1-0.2,0.2v7.3c0,0.1,0.1,0.2,0.2,0.2H351.2z"/>
      <path class="st18" d="M368.2,139h-6.4c-0.1,0-0.2,0-0.3,0.2c-0.2,0.6-1.1,3.9-1.2,4.6c-0.1,0.2-0.2,0.3-0.3,0.3h-1.5 c-0.2,0-0.2-0.1-0.2-0.3c0.8-3.2,3.9-13.9,5.1-17.4c0.1-0.2,0.2-0.3,0.3-0.3h2.9c0.2,0,0.3,0.1,0.3,0.3c1.2,3.9,4.2,15.1,4.8,17.4 c0.1,0.2,0,0.3-0.2,0.3h-1.6c-0.2,0-0.3,0-0.3-0.3c-0.2-0.7-1-4-1.2-4.6C368.4,139,368.3,139,368.2,139z M367.8,137.4 c0.2,0,0.2-0.1,0.2-0.2c-0.4-1.6-1.7-6.8-2.4-9.4c-0.1-0.2-0.1-0.2-0.5-0.2c-0.3,0-0.4,0-0.4,0.2c-0.8,2.6-2.2,7.7-2.6,9.4 c0,0.2,0.1,0.2,0.2,0.2H367.8z"/>
      <path class="st18" d="M384,144c-0.2,0-0.3-0.1-0.4-0.4l-6.1-15.2c-0.1-0.3-0.2-0.4-0.3-0.4c-0.2,0-0.2,0.1-0.2,0.3v15.4 c0,0.2-0.1,0.3-0.3,0.3h-1.3c-0.2,0-0.3-0.1-0.3-0.3v-17.4c0-0.2,0.1-0.3,0.3-0.3h2.8c0.2,0,0.3,0.1,0.4,0.3l6,15 c0.2,0.3,0.2,0.4,0.3,0.4s0.2-0.1,0.2-0.2v-15.2c0-0.2,0.1-0.3,0.3-0.3h1.4c0.2,0,0.3,0.1,0.3,0.3v17.4c0,0.2-0.1,0.3-0.3,0.3H384 z"/>
      <path class="st18" d="M401.1,126h1.4c0.2,0,0.2,0.1,0.1,0.3c-1.1,2.4-3.3,6.6-4.5,8.7c-0.7,1.3-1,1.6-1,2v6.7 c0,0.2-0.1,0.3-0.3,0.3h-1.4c-0.2,0-0.3-0.1-0.3-0.3V137c0-0.4-0.2-0.7-0.8-1.9c-1.2-2.1-3.9-7.5-4.4-8.8c-0.1-0.2,0-0.3,0.2-0.3 h1.5c0.2,0,0.3,0.1,0.4,0.3c0.8,1.9,3,6.5,3.9,8.2c0.2,0.4,0.2,0.4,0.4,0.4c0.2,0,0.2-0.1,0.4-0.4c1-1.7,3.1-6.2,4-8.2 C400.8,126.1,400.9,126,401.1,126z"/>
    </g>
  </g>
</svg>