<?xml version="1.0" encoding="utf-8"?>
<svg version="1.1" id="Layer_1" x="0px" y="0px" viewBox="-71.874 -1.953 267.469 153.498" style="enable-background:new 0 0 403.9 144;" xmlns="http://www.w3.org/2000/svg">
  <style type="text/css">
	.st0{display:none;}
	.st1{fill:#8DC8E8;}
	.st2{fill:#41B6E6;}
	.st3{fill:#14A3C7;}
	.st4{fill:#5CB8B2;}
	.st5{fill:#279989;}
	.st6{fill:#A0D1CA;}
	.st7{fill:#00857D;}
	.st8{fill:#009639;}
	.st9{fill:#00685E;}
	.st10{fill:#84BD00;}
	.st11{fill:#007864;}
	.st12{fill:#A4D65E;}
	.st13{fill:#009A44;}
	.st14{fill:#C2E189;}
	.st15{fill:#78BE20;}
	.st16{fill:#FFFFFF;}
	.st17{fill:#00827E;}
	.st18{fill:#454545;}
</style>
  <g transform="matrix(1, 0, 0, 1, 0.689314, 1.895612)">
    <g>
      <rect y="48.2" class="st1" width="13.2" height="37.7"/>
      <rect y="85.9" class="st2" width="13.2" height="29.9"/>
      <rect x="13.2" y="20.1" class="st2" width="13.4" height="41.7"/>
      <rect x="13.2" y="61.9" class="st3" width="13.4" height="47.8"/>
      <rect x="26.5" y="27.1" class="st4" width="13.2" height="45"/>
      <rect x="26.5" y="72.1" class="st5" width="13.2" height="52.7"/>
      <rect x="39.8" class="st6" width="20.2" height="48"/>
      <rect x="39.8" y="48" class="st7" width="20.2" height="87.7"/>
      <rect x="59.9" y="23.7" class="st8" width="13.3" height="62"/>
      <rect x="59.9" y="85.7" class="st9" width="13.3" height="58.3"/>
      <rect x="73.2" y="11.7" class="st10" width="20.2" height="54.9"/>
      <rect x="73.2" y="66.6" class="st11" width="20.2" height="59.4"/>
      <rect x="93.4" y="48.2" class="st12" width="13.3" height="29.8"/>
      <rect x="93.4" y="78" class="st13" width="13.3" height="31.7"/>
      <rect x="106.6" y="39.4" class="st14" width="13.3" height="27.2"/>
      <rect x="106.6" y="66.6" class="st15" width="13.3" height="31.6"/>
    </g>
    <g/>
    <g/>
  </g>
  <text style="white-space: pre; fill: rgb(51, 51, 51); font-family: Neuropol, sans-serif; font-size: 8.8px;" x="39.848" y="77.781">DataBridge</text>
  <text style="white-space: pre; fill: rgb(51, 51, 51); font-family: Neuropol, sans-serif; font-size: 8.8px;" x="-145.532" y="34.63"> </text>
  <text style="white-space: pre; fill: rgb(51, 51, 51); font-family: Neuropol, sans-serif; font-size: 8.8px;" x="-170.674" y="-2.769"> </text>
  <text style="white-space: pre; fill: rgb(51, 51, 51); font-family: Neuropol, sans-serif; font-size: 8.8px;" x="-25.789" y="87.43"> </text>
  <text style="white-space: pre; fill: rgb(51, 51, 51); font-family: Neuropol, sans-serif; font-size: 8.8px;" x="-158.731" y="71.716"> </text>
</svg>